<?xml version="1.0" encoding="UTF-8"?> <svg xmlns="http://www.w3.org/2000/svg" xmlns:xlink="http://www.w3.org/1999/xlink" width="116px" height="116px" viewBox="0 0 116 116"><title>Group 8</title><defs><polygon id="path-1" points="0 0 116 0 116 116 0 116"></polygon></defs><g id="Page-1" stroke="none" stroke-width="1" fill="none" fill-rule="evenodd"><g id="1-Home" transform="translate(-78.000000, -901.000000)"><g id="Group-8" transform="translate(78.000000, 901.000000)"><g id="Group-3"><mask id="mask-2" fill="white"><use xlink:href="#path-1"></use></mask><g id="Clip-2"></g><path d="M103.226168,116 L12.7738316,116 C5.71945991,116 -0.00123717497,110.279303 -0.00123717497,103.224931 L-0.00123717497,12.7725944 C-0.00123717497,5.71822273 5.71945991,0 12.7738316,0 L103.226168,0 C110.28054,0 116.001237,5.71822273 116.001237,12.7725944 L116.001237,103.224931 C116.001237,110.279303 110.28054,116 103.226168,116" id="Fill-1" fill="#EF4B81" mask="url(#mask-2)"></path></g><polygon id="Fill-4" fill="#FEFEFE" points="58.0539408 103.821992 79.0488002 55.2678228 37.0887737 55.2678228"></polygon><path d="M82.9389731,37.3433843 C82.9859858,36.84604 83.0107293,36.3165291 83.0107293,35.7499029 C83.0107293,22.7298735 71.843988,12.176771 58.0692818,12.176771 C44.2945756,12.176771 33.1278343,22.7298735 33.1278343,35.7499029 C33.1278343,36.3066317 33.1476291,36.8262452 33.1847444,37.3136921 C29.9656151,38.0881636 27.575393,40.9831531 27.575393,44.4373456 C27.575393,48.4829078 30.8539067,51.7638958 34.9019432,51.7638958 C36.653783,51.7638958 38.2596361,51.1477827 39.5215546,50.1234018 C40.7809987,51.1477827 42.3893262,51.7638958 44.1411659,51.7638958 C45.8930057,51.7638958 47.5013332,51.1477827 48.7607773,50.1234018 C50.0226958,51.1477827 51.6285489,51.7638958 53.3803886,51.7638958 C55.1322284,51.7638958 56.7405559,51.1477827 58,50.1234018 C59.2619185,51.1477827 60.8677716,51.7638958 62.6196114,51.7638958 C64.3714511,51.7638958 65.9797786,51.1477827 67.2392227,50.1234018 C68.5011412,51.1477827 70.1094687,51.7638958 71.8613084,51.7638958 C73.6131482,51.7638958 75.2190013,51.1477827 76.4809198,50.1234018 C77.7403639,51.1477827 79.3486914,51.7638958 81.1005311,51.7638958 C85.1460933,51.7638958 88.4270813,48.4829078 88.4270813,44.4373456 C88.4270813,41.025217 86.0962437,38.1599198 82.9389731,37.3433843" id="Fill-6" fill="#FEFEFE"></path></g></g></g></svg> 