<svg id="flowstate-logo-{{location}}" fill="none" viewBox="0 0 1234 356" xmlns="http://www.w3.org/2000/svg" xmlns:xlink="http://www.w3.org/1999/xlink">
  <clipPath id="a">
    <path d="m0 0h1233.45v356h-1233.45z"/>
  </clipPath>
  <g clip-path="url(#a)">
    <path d="m299.68 0h-243.36c-30.97 0-56.32 25.35-56.32 56.32v243.35c0 30.98 25.35 56.32 56.32 56.32h243.35c30.98 0 56.32-25.35 56.32-56.32v-243.35c0-30.98-25.35-56.32-56.32-56.32zm-90.8 194.25c-23.98 22.83-55.92 31.38-87.5 18.39-5.13-1.78-10.2-2.71-15.64-2.78-1.65-.02-3.16.94-3.85 2.45-7.45 16.44-14.91 32.89-22.36 49.33-.68 1.49-2.16 2.45-3.79 2.45h-42.47c-3.03 0-5.04-3.13-3.79-5.89 6.65-14.68 13.3-29.35 19.96-44.03.09-.2.2-.39.32-.58 9.64-14.57 20.27-26.62 36.69-34.34 15.7-7.39 33.05-8.61 49.64-3.54 20.76 7.51 42.89 8.84 64.36 3.33l-.12.04c3.73-1.01 7.76.48 9.9 3.8 2.33 3.62 1.76 8.4-1.36 11.37zm114.14-78.05c-37.85 40.18-96.2 53.55-147.77 33.85-30.15-10.05-63.05-7.76-91.52 6.37-3.51 1.74-7.26-1.88-5.65-5.45 5.93-13.08 11.86-26.17 17.79-39.25.36-.8.86-1.36 1.6-1.82 30.35-18.77 67.47-23.11 101.33-11.82 34.98 13.36 73.91 11.74 107.65-4.49 6.19-2.98 13.63-1.12 17.68 4.43 4.06 5.54 3.58 13.19-1.13 18.19z" fill="#d12e6a"/>
    <g fill="#000">
      <path d="m478.81 136.92v33.21h44.82v23.49h-44.82v51.03h-30.6v-131.13h84.42v23.4z"/>
      <path d="m573.49 109.92v134.73h-27.9v-134.73z"/>
      <path d="m635.41 149.88c7.08 0 13.53 1.11 19.35 3.33s10.81 5.4 14.99 9.54c4.17 4.14 7.41 9.17 9.72 15.07 2.31 5.91 3.47 12.56 3.47 19.94s-1.16 14.15-3.47 20.12-5.55 11.04-9.72 15.21-9.17 7.38-14.99 9.63-12.27 3.38-19.35 3.38-13.64-1.12-19.49-3.38-10.89-5.46-15.12-9.63-7.5-9.24-9.81-15.21-3.47-12.67-3.47-20.12 1.15-14.02 3.47-19.94c2.31-5.91 5.58-10.93 9.81-15.07s9.27-7.32 15.12-9.54 12.34-3.33 19.49-3.33zm0 75.51c6.42 0 11.14-2.26 14.17-6.8 3.03-4.53 4.54-11.41 4.54-20.65s-1.52-16.11-4.54-20.61c-3.03-4.5-7.76-6.75-14.17-6.75s-11.43 2.25-14.49 6.75-4.59 11.37-4.59 20.61 1.53 16.13 4.59 20.65c3.06 4.53 7.89 6.8 14.49 6.8z"/>
      <path d="m832.6 151.31-28.98 93.33h-22.68c-1.2 0-2.22-.36-3.06-1.08s-1.5-1.92-1.98-3.6l-13.32-46.53c-.66-2.1-1.25-4.17-1.75-6.21-.51-2.04-.98-4.11-1.4-6.21-.42 2.1-.89 4.2-1.4 6.3s-1.1 4.2-1.75 6.3l-13.5 46.35c-.9 3.12-2.88 4.68-5.94 4.68h-21.6l-28.98-93.33h22.32c1.98 0 3.65.47 5 1.4s2.26 2.09 2.74 3.46l9.36 41.85c.78 3.18 1.47 6.25 2.07 9.23.6 2.97 1.14 5.96 1.62 8.96.78-3 1.6-5.98 2.48-8.96.87-2.97 1.81-6.04 2.83-9.23l11.7-41.94c.48-1.38 1.38-2.53 2.7-3.46s2.88-1.4 4.68-1.4h12.42c1.98 0 3.65.47 5 1.4s2.26 2.09 2.74 3.46l11.16 41.94c.9 3.18 1.78 6.27 2.65 9.27s1.67 6.03 2.39 9.09c.48-3 1.05-6 1.71-9s1.41-6.12 2.25-9.36l9.9-41.85c.48-1.38 1.38-2.53 2.7-3.46s2.88-1.4 4.68-1.4z"/>
      <path d="m900.46 171.75c-.72 1.14-1.48 1.95-2.29 2.43s-1.84.72-3.1.72-2.64-.28-3.96-.85-2.75-1.18-4.27-1.85c-1.53-.66-3.26-1.27-5.17-1.84-1.92-.57-4.11-.85-6.57-.85-3.54 0-6.25.67-8.15 2.02-1.89 1.35-2.83 3.23-2.83 5.62 0 1.74.61 3.18 1.85 4.32 1.23 1.14 2.86 2.15 4.9 3.02s4.35 1.7 6.93 2.48 5.22 1.65 7.92 2.61 5.34 2.09 7.92 3.38 4.89 2.88 6.93 4.77 3.67 4.19 4.9 6.89 1.85 5.94 1.85 9.72c0 4.62-.84 8.88-2.52 12.78s-4.19 7.26-7.52 10.08-7.44 5.01-12.33 6.57-10.52 2.34-16.88 2.34c-3.18 0-6.36-.3-9.54-.9s-6.25-1.41-9.22-2.43-5.72-2.23-8.24-3.65c-2.52-1.41-4.68-2.92-6.48-4.54l6.48-10.26c.72-1.2 1.63-2.14 2.75-2.83 1.11-.69 2.53-1.04 4.27-1.04 1.62 0 3.07.36 4.37 1.08 1.29.72 2.68 1.5 4.19 2.34 1.5.84 3.25 1.62 5.26 2.34s4.55 1.08 7.6 1.08c2.16 0 3.99-.23 5.49-.67 1.5-.45 2.7-1.06 3.6-1.85.9-.78 1.56-1.65 1.98-2.61s.63-1.95.63-2.97c0-1.86-.63-3.39-1.89-4.59s-2.91-2.23-4.95-3.1-4.37-1.68-6.98-2.43-5.27-1.6-7.96-2.56c-2.7-.96-5.35-2.11-7.97-3.46-2.61-1.35-4.94-3.06-6.98-5.13s-3.69-4.6-4.95-7.6-1.89-6.63-1.89-10.89c0-3.96.77-7.72 2.29-11.29 1.53-3.57 3.83-6.71 6.89-9.41s6.9-4.84 11.52-6.43 10.02-2.39 16.2-2.39c3.36 0 6.62.3 9.77.9s6.1 1.44 8.87 2.52c2.76 1.08 5.28 2.36 7.56 3.83s4.29 3.08 6.03 4.81l-6.3 9.81z"/>
      <path d="m954.73 246.08c-4.44 0-8.36-.65-11.74-1.94-3.39-1.29-6.24-3.12-8.55-5.49s-4.07-5.23-5.27-8.6c-1.2-3.36-1.8-7.11-1.8-11.25v-48.24h-7.92c-1.44 0-2.67-.46-3.69-1.4-1.02-.93-1.53-2.29-1.53-4.1v-10.89l14.85-2.88 5.49-22.77c.72-2.88 2.76-4.32 6.12-4.32h14.58v27.27h23.13v19.08h-23.13v46.35c0 2.16.52 3.95 1.58 5.35 1.05 1.41 2.56 2.12 4.54 2.12 1.02 0 1.87-.1 2.56-.31s1.29-.45 1.8-.72.99-.51 1.44-.72.97-.31 1.57-.31c.84 0 1.51.2 2.02.58.51.39 1.04 1.01 1.58 1.84l8.46 13.23c-3.6 2.7-7.65 4.73-12.15 6.08s-9.15 2.02-13.95 2.02z"/>
      <path d="m988.38 164.27c5.64-4.98 11.89-8.69 18.77-11.11 6.87-2.43 14.23-3.65 22.1-3.65 5.64 0 10.72.92 15.25 2.75s8.37 4.38 11.52 7.65 5.56 7.15 7.24 11.65 2.52 9.42 2.52 14.76v58.32h-12.78c-2.64 0-4.63-.36-5.98-1.08s-2.48-2.22-3.38-4.5l-1.98-5.13c-2.34 1.98-4.59 3.72-6.75 5.22s-4.4 2.78-6.71 3.83-4.77 1.83-7.38 2.34-5.51.77-8.69.77c-4.26 0-8.13-.56-11.61-1.67s-6.43-2.75-8.86-4.9c-2.43-2.16-4.31-4.84-5.62-8.06-1.32-3.21-1.98-6.91-1.98-11.11 0-3.36.84-6.76 2.52-10.22 1.68-3.45 4.59-6.6 8.73-9.45s9.72-5.23 16.74-7.16c7.02-1.92 15.87-3 26.55-3.24v-3.96c0-5.46-1.12-9.41-3.38-11.83-2.25-2.43-5.45-3.65-9.58-3.65-3.3 0-6 .36-8.1 1.08s-3.98 1.53-5.62 2.43c-1.65.9-3.26 1.71-4.81 2.43-1.56.72-3.42 1.08-5.58 1.08-1.92 0-3.54-.48-4.86-1.44s-2.4-2.1-3.24-3.42l-5.04-8.73zm50.22 42.39c-5.58.24-10.17.72-13.77 1.44s-6.45 1.62-8.55 2.7-3.55 2.31-4.36 3.69-1.21 2.88-1.21 4.5c0 3.18.87 5.42 2.61 6.71s4.29 1.94 7.65 1.94c3.6 0 6.75-.63 9.45-1.89s5.43-3.3 8.19-6.12v-12.96z"/>
      <path d="m1115.55 246.08c-4.44 0-8.36-.65-11.74-1.94-3.39-1.29-6.24-3.12-8.55-5.49s-4.07-5.23-5.27-8.6c-1.2-3.36-1.8-7.11-1.8-11.25v-48.24h-7.92c-1.44 0-2.67-.46-3.69-1.4-1.02-.93-1.53-2.29-1.53-4.1v-10.89l14.85-2.88 5.49-22.77c.72-2.88 2.76-4.32 6.12-4.32h14.58v27.27h23.13v19.08h-23.13v46.35c0 2.16.52 3.95 1.58 5.35 1.05 1.41 2.56 2.12 4.54 2.12 1.02 0 1.87-.1 2.56-.31s1.29-.45 1.8-.72.99-.51 1.44-.72.97-.31 1.57-.31c.84 0 1.51.2 2.02.58.51.39 1.04 1.01 1.58 1.84l8.46 13.23c-3.6 2.7-7.65 4.73-12.15 6.08s-9.15 2.02-13.95 2.02z"/>
      <path d="m1173.33 202.98c.9 7.8 3.27 13.46 7.11 16.96 3.84 3.51 8.79 5.27 14.85 5.27 3.24 0 6.03-.39 8.37-1.17s4.42-1.65 6.25-2.61 3.51-1.83 5.04-2.61 3.13-1.17 4.81-1.17c2.22 0 3.9.81 5.04 2.43l8.1 9.99c-2.88 3.3-5.98 5.98-9.31 8.06-3.33 2.07-6.75 3.69-10.26 4.86s-7.02 1.98-10.53 2.43-6.86.67-10.04.67c-6.54 0-12.68-1.07-18.4-3.19-5.73-2.13-10.74-5.29-15.03-9.5-4.29-4.2-7.68-9.42-10.17-15.66s-3.73-13.5-3.73-21.78c0-6.24 1.06-12.15 3.19-17.73s5.19-10.47 9.18-14.67 8.82-7.53 14.49-9.99 12.07-3.69 19.21-3.69c6.18 0 11.83.96 16.96 2.88s9.54 4.71 13.23 8.37 6.57 8.15 8.64 13.46 3.1 11.33 3.1 18.04c0 2.1-.09 3.81-.27 5.13s-.51 2.37-.99 3.15-1.12 1.32-1.93 1.62-1.85.45-3.1.45h-53.82zm35.1-16.2c0-2.22-.29-4.38-.85-6.48-.57-2.1-1.5-3.97-2.79-5.62s-2.99-2.98-5.08-4c-2.1-1.02-4.65-1.53-7.65-1.53-5.28 0-9.42 1.52-12.42 4.54-3 3.03-4.98 7.4-5.94 13.09h34.74z"/>
    </g>
  </g>
</svg>