<svg fill="none" height="175" viewBox="0 0 175 175" width="175" xmlns="http://www.w3.org/2000/svg"><path d="m88 58.5c-16.6406 0-30 13.4766-30 30 0 16.641 13.3594 30 30 30 16.523 0 30-13.359 30-30 0-16.5234-13.477-30-30-30zm-2.8125 17.8125c0-1.5234 1.1719-2.8125 2.8125-2.8125 1.5234 0 2.8125 1.2891 2.8125 2.8125v15c0 1.6406-1.2891 2.8125-2.8125 2.8125-1.6406 0-2.8125-1.1719-2.8125-2.8125zm2.8125 29.0625c-2.1094 0-3.75-1.641-3.75-3.633s1.6406-3.6326 3.75-3.6326c1.9922 0 3.6328 1.6406 3.6328 3.6326s-1.6406 3.633-3.6328 3.633z" fill="#d12e6a"/><g fill="#000"><path d="m64.2505 101.508c1.9921 0 3.75-1.7581 3.75-3.7503 0-2.1094-1.7579-3.75-3.75-3.75h-3.75v-16.7578c0-1.9922-1.7579-3.75-3.75-3.75-2.1094 0-3.75 1.7578-3.75 3.75v16.7578h-20.3907l12.4219-26.3672c.9375-1.875.1172-4.1016-1.7578-4.9219-1.875-.9375-4.1016-.1172-4.9219 1.7578l-15 31.6407c-.5859 1.1718-.4687 2.5781.1172 3.6328.7031 1.0551 1.9922 1.7581 3.2813 1.7581h26.25v9.492c0 2.109 1.6406 3.75 3.75 3.75 1.9921 0 3.75-1.641 3.75-3.75v-9.492z"/><path d="m149.25 101.508c1.993 0 3.75-1.7581 3.75-3.7503 0-2.1094-1.757-3.75-3.75-3.75h-3.75v-16.7578c0-1.9922-1.757-3.75-3.75-3.75-2.109 0-3.75 1.7578-3.75 3.75v16.7578h-20.39l12.422-26.3672c.937-1.875.117-4.1016-1.758-4.9219-1.875-.9375-4.102-.1172-4.922 1.7578l-15 31.6407c-.586 1.1718-.469 2.5781.117 3.6328.703 1.0551 1.992 1.7581 3.281 1.7581h26.25v9.492c0 2.109 1.641 3.75 3.75 3.75 1.993 0 3.75-1.641 3.75-3.75v-9.492z"/></g></svg>