<svg fill="none" height="175" viewBox="0 0 175 175" width="175" xmlns="http://www.w3.org/2000/svg"><path clip-rule="evenodd" d="m54.2422 42.4062c-.3906-2.1484-2.3438-3.9062-4.4922-3.9062h-14.0625c-2.7344 0-4.6875 2.1484-4.6875 4.6875 0 2.7344 1.9531 4.6875 4.6875 4.6875h10.1563l.007.0371c12.4636.6586 22.4176 11.0219 22.4176 23.6453 0 9.6111-5.6971 17.835-13.8622 21.5556l3.1563 16.676c.3906 2.149 2.3437 3.711 4.4922 3.711h64.2573c2.54 0 4.688-1.953 4.688-4.688 0-2.539-2.148-4.687-4.688-4.687h-60.3511l-1.7578-9.375h61.9139c2.93 0 5.274-1.7578 6.055-4.4922l10.547-37.5c1.172-3.9062-1.953-8.0078-6.055-8.0078h-82.0312zm11.1328 77.3438c-5.2734 0-9.375 4.297-9.375 9.375 0 5.273 4.1016 9.375 9.375 9.375 5.0781 0 9.375-4.102 9.375-9.375 0-5.078-4.2969-9.375-9.375-9.375zm56.25 18.75c5.078 0 9.375-4.102 9.375-9.375 0-5.078-4.297-9.375-9.375-9.375-5.273 0-9.375 4.297-9.375 9.375 0 5.273 4.102 9.375 9.375 9.375z" fill="#000" fill-rule="evenodd"/><path d="m24 71.5577c0-11.3405 9.169-20.5899 20.59-20.5899 11.3405 0 20.5899 9.2494 20.5899 20.5899 0 11.421-9.2494 20.59-20.5899 20.59-11.421 0-20.59-9.169-20.59-20.59zm20.59 9.0082c1.0456 0 1.9303-.8043 1.9303-1.9304v-5.1474h5.1475c1.0456 0 1.9303-.8043 1.9303-1.9304 0-1.0455-.8847-1.9303-1.9303-1.9303h-5.1475v-5.1475c0-1.0455-.8847-1.9303-1.9303-1.9303-1.126 0-1.9303.8848-1.9303 1.9303v5.1475h-5.1475c-1.126 0-1.9303.8848-1.9303 1.9303 0 1.1261.8043 1.9304 1.9303 1.9304h5.1475v5.1474c0 1.1261.8043 1.9304 1.9303 1.9304z" fill="#d12e6a"/></svg>