<svg fill="none" height="175" viewBox="0 0 175 175" width="175" xmlns="http://www.w3.org/2000/svg"><path clip-rule="evenodd" d="m141.805 108.055v-56.055c0-6.8359-5.469-12.5-12.5-12.5h-75.0003c-7.0313 0-12.5 5.4688-12.5 12.5v5.0003c12.9886.0683 23.5522 10.674 23.5522 23.6782 0 13.0921-10.5714 23.6105-23.5522 23.6785v3.698c0 6.64 5.4687 12.304 12.5 12.304h18.75v16.407c0 1.953 2.1484 2.929 3.7109 1.757l24.4144-18.164h28.125c6.836 0 12.5-5.468 12.5-12.304z" fill="#000" fill-rule="evenodd"/><path d="m41.6785 101.269c-11.421 0-20.59-9.1692-20.59-20.5902 0-11.3405 9.169-20.5899 20.59-20.5899 11.3405 0 20.5899 9.2494 20.5899 20.5899 0 11.421-9.2494 20.5902-20.5899 20.5902zm-1.9303-20.5902c0 .6435.3217 1.2869.8043 1.6086l7.7212 5.1475c.8847.6435 2.0912.4022 2.6542-.4826.6434-.8847.4021-2.0911-.4826-2.7346l-6.8365-4.504v-9.9733c0-1.0456-.8847-1.9303-2.0108-1.9303-1.0455 0-1.9303.8847-1.9303 1.9303z" fill="#d12e6a"/></svg>