<svg fill="none" height="175" viewBox="0 0 175 175" width="175" xmlns="http://www.w3.org/2000/svg"><g clip-rule="evenodd" fill-rule="evenodd"><path d="m69 36.5c-3.5156 0-6.25 2.9297-6.25 6.25v6.25h-9.375c-5.2734 0-9.375 4.2969-9.375 9.375v9.375h87.5v-9.375c0-5.0781-4.297-9.375-9.375-9.375h-9.375v-6.25c0-3.3203-2.93-6.25-6.25-6.25-3.516 0-6.25 2.9297-6.25 6.25v6.25h-25v-6.25c0-3.3203-2.9297-6.25-6.25-6.25zm53.125 100c5.078 0 9.375-4.102 9.375-9.375v-53.125h-87.5v53.125c0 5.273 4.1016 9.375 9.375 9.375h2.875v-.625c0-1.758 1.3672-3.125 3.125-3.125h12.5c1.5625 0 3.125 1.367 3.125 3.125v.625h3.25v-20.625c0-1.758 1.3672-3.125 3.125-3.125h12.5c1.5625 0 3.125 1.367 3.125 3.125v20.625h4.25v-10.625c0-1.758 1.367-3.125 3.125-3.125h12.5c1.563 0 3.125 1.367 3.125 3.125v10.625z" fill="#000"/><path d="m75 89.125c0-1.7578-1.5625-3.125-3.125-3.125h-12.5c-1.7578 0-3.125 1.3672-3.125 3.125v36.25c0 1.563 1.3672 3.125 3.125 3.125h12.5c1.5625 0 3.125-1.562 3.125-3.125zm22 0c0-1.7578-1.5625-3.125-3.125-3.125h-12.5c-1.7578 0-3.125 1.3672-3.125 3.125v16.25c0 1.563 1.3672 3.125 3.125 3.125h12.5c1.5625 0 3.125-1.562 3.125-3.125zm19.875-3.125c1.563 0 3.125 1.3672 3.125 3.125v26.25c0 1.563-1.563 3.125-3.125 3.125h-12.5c-1.758 0-3.125-1.562-3.125-3.125v-26.25c0-1.7578 1.367-3.125 3.125-3.125z" fill="#d12e6a"/></g></svg>