<svg width="175" height="175" viewBox="0 0 175 175" fill="none" xmlns="http://www.w3.org/2000/svg">
<path fill-rule="evenodd" clip-rule="evenodd" d="M54.5073 68.0723C47.9093 62.3923 40.4617 58.956 33.8708 60.722C18.8725 64.7407 13.6043 93.753 17.6231 108.751C21.6418 123.75 36.9293 132.695 52.069 128.639C54.5511 127.974 56.8722 126.992 58.9978 125.747C51.7927 118.416 47.3789 108.35 47.3789 97.2499C47.3789 88.6942 50.0389 77.979 54.5073 68.0723ZM33.9684 79.1973C30.9572 86.0703 29.1591 97.471 31.2064 105.112C31.5476 106.385 30.6811 107.679 29.5491 107.982C28.2757 108.323 27.0198 107.598 26.6786 106.325C24.2901 97.4108 26.3508 84.7265 29.6728 77.3153C30.1528 76.2768 31.5298 75.7562 32.7098 76.1982C33.9278 76.7818 34.4484 78.1588 33.9684 79.1973Z" fill="#D12E6A"/>
<path d="M116.903 125.712C118.832 126.76 120.919 127.601 123.144 128.197C138.001 132.178 153.534 123.45 157.59 108.31C161.609 93.3116 156.199 64.2614 141.342 60.2805C134.814 58.5312 127.514 61.8048 121.02 67.2969C125.725 77.4138 128.559 88.4666 128.559 97.2499C128.559 108.4 124.091 118.418 116.903 125.712Z" fill="#D12E6A"/>
<path d="M87.9688 41C67.2656 41 50.4688 76.5469 50.4688 97.25C50.4688 117.953 67.0703 134.75 87.9688 134.75C108.477 134.75 125.469 118.148 125.469 97.25C125.469 76.5469 108.477 41 87.9688 41ZM81.7188 64.8281C75.4688 72.6406 69.2188 86.7031 69.2188 97.25C69.2188 99.0078 67.6562 100.375 66.0938 100.375C64.3359 100.375 62.9688 99.0078 62.9688 97.25C62.9688 84.9453 70 69.3203 76.8359 60.9219C77.8125 59.75 79.7656 59.5547 81.1328 60.5312C82.5 61.7031 82.6953 63.6562 81.7188 64.8281Z" fill="black"/>
</svg>
