<svg fill="none" height="175" viewBox="0 0 175 175" width="175" xmlns="http://www.w3.org/2000/svg"><path d="m19 88.088c0-11.3406 9.169-20.59 20.59-20.59 11.3405 0 20.5899 9.2494 20.5899 20.59 0 11.421-9.2494 20.59-20.5899 20.59-11.421 0-20.59-9.169-20.59-20.59zm20.59 9.0081c1.0456 0 1.9303-.8043 1.9303-1.9303v-5.1475h5.1475c1.0456 0 1.9303-.8043 1.9303-1.9303 0-1.0456-.8847-1.9303-1.9303-1.9303h-5.1475v-5.1475c0-1.0456-.8847-1.9303-1.9303-1.9303-1.126 0-1.9303.8847-1.9303 1.9303v5.1475h-5.1475c-1.126 0-1.9303.8847-1.9303 1.9303 0 1.126.8043 1.9303 1.9303 1.9303h5.1475v5.1475c0 1.126.8043 1.9303 1.9303 1.9303z" fill="#d12e6a"/><path clip-rule="evenodd" d="m116.802 116.561v-57.9095c0-5.2279-4.423-9.6515-9.651-9.6515h-57.9095c-5.429 0-9.6515 4.4236-9.6515 9.6515v5.7577c13.0463 0 23.6784 10.6321 23.6784 23.6784 0 13.1344-10.64 23.6784-23.6784 23.6784v4.795c0 5.429 4.2225 9.651 9.6515 9.651h57.9095c5.228 0 9.651-4.222 9.651-9.651zm38.607-3.016v-51.6763c0-5.0268-6.033-8.0429-10.255-5.2279l-21.917 15.2816v31.5686l21.917 15.282c4.222 2.815 10.255-.201 10.255-5.228z" fill="#000" fill-rule="evenodd"/></svg>