<svg fill="none" height="175" viewBox="0 0 175 175" width="175" xmlns="http://www.w3.org/2000/svg"><path d="m148.222 112.105c10.822-2.95 18.778-12.8485 18.778-24.605 0-14.0833-11.417-25.5-25.5-25.5h-7.745c2.547 4.1029 4.291 8.7446 4.991 13.6928l.002.0175.002.0176c1.073 8.2723-.743 16.01-4.456 22.4487z" fill="#000"/><path d="m73.1035 62h-38.6035c-14.0833 0-25.5 11.4167-25.5 25.5 0 14.083 11.4167 25.5 25.5 25.5h54.2173c-10.9546-5.064-19.0168-15.54-20.6231-27.7213l-.0014-.0103-.0013-.0104c-1.069-8.5524.9168-16.6203 5.012-23.258z" fill="#000"/><path d="m149.125 117.375c2.343 2.5 2.343 6.406 0 8.906-2.5 2.344-6.407 2.344-8.907 0l-18.593-18.75c-6.407 4.219-14.219 6.407-22.6566 5.313-14.375-2.031-25.9375-13.7501-27.8125-27.9688-2.6562-21.25 15.3125-39.2188 36.5621-36.5625 14.219 1.875 25.938 13.4375 27.969 27.8125 1.094 8.4375-1.094 16.25-5.312 22.5zm-65.7816-36.8748c0 11.0937 8.9063 19.9998 19.9996 19.9998 10.938 0 20-8.9061 20-19.9998 0-10.9375-9.062-20-20-20-11.0933 0-19.9996 9.0625-19.9996 20z" fill="#d12e6a"/></svg>