<svg fill="none" height="175" viewBox="0 0 175 175" width="175" xmlns="http://www.w3.org/2000/svg"><path d="m136.3 80.8847 4.585-1.7694 1.689-4.5041c.08-.4021.483-.6434.885-.6434.321 0 .724.2413.804.6434l1.769 4.5041 4.505 1.7694c.402.0804.643.4826.643.8043 0 .4022-.241.8043-.643.8847l-4.505 1.6891-1.769 4.5844c-.08.3218-.483.5631-.804.5631-.402 0-.805-.2413-.885-.5631l-1.689-4.5844-4.585-1.6891c-.402-.0804-.563-.4825-.563-.8847 0-.3217.161-.7239.563-.8043zm-5.63 8.2038 9.169 4.1824c.483.2413.805.7238.805 1.2064s-.322.9652-.805 1.2065l-9.169 4.1823-4.182 9.1689c-.241.483-.724.804-1.206.804-.483 0-.966-.321-1.126-.804l-4.263-9.1689-9.169-4.1823c-.483-.2413-.724-.7239-.724-1.2065s.241-.9651.724-1.2064l9.169-4.1824 4.263-9.1689c.16-.4826.643-.8043 1.126-.8043.482 0 .965.3217 1.206.8043zm11.904 11.2605c.08-.4025.483-.6438.885-.6438.321 0 .724.2413.804.6438l1.769 4.504 4.505 1.769c.402.081.643.483.643.804 0 .403-.241.805-.643.885l-4.505 1.689-1.769 4.585c-.08.321-.483.563-.804.563-.402 0-.805-.242-.885-.563l-1.689-4.585-4.585-1.689c-.402-.08-.563-.482-.563-.885 0-.321.161-.723.563-.804l4.585-1.769z" fill="#d12e6a"/><path clip-rule="evenodd" d="m43.5 44.75c-7.0312 0-12.5 5.6641-12.5 12.5v62.5c0 7.031 5.4688 12.5 12.5 12.5h75c6.836 0 12.5-5.469 12.5-12.5v-13.165l-1.725 3.782-.025.049c-.687 1.376-2.154 2.511-3.968 2.511-1.671 0-3.315-1.018-3.978-2.7l-3.731-8.025-8.181-3.7315-.049-.0247c-1.674-.8369-2.432-2.4877-2.432-3.9689 0-1.4811.758-3.1319 2.432-3.9688l.049-.0247 8.181-3.7318 3.731-8.0249c.663-1.6813 2.307-2.7003 3.978-2.7003 1.814 0 3.281 1.1359 3.968 2.5116l.025.0493 1.725 3.7814v-25.1187c0-6.8359-5.664-12.5-12.5-12.5zm12.5 18.75c0 3.5156-2.9297 6.25-6.25 6.25-3.5156 0-6.25-2.7344-6.25-6.25 0-3.3203 2.7344-6.25 6.25-6.25 3.3203 0 6.25 2.9297 6.25 6.25zm57.812-4.6875c2.54 0 4.688 2.1484 4.688 4.6875 0 2.7344-2.148 4.6875-4.688 4.6875h-46.8745c-2.7344 0-4.6875-1.9531-4.6875-4.6875 0-2.5391 1.9531-4.6875 4.6875-4.6875z" fill="#000" fill-rule="evenodd"/></svg>