<svg width="175" height="175" viewBox="0 0 175 175" fill="none" xmlns="http://www.w3.org/2000/svg">
<path d="M75 36.5C71.4844 36.5 68.75 39.4297 68.75 42.75V49H59.375C54.1016 49 50 53.2969 50 58.375V64.1616C54.976 64.1617 59.6562 65.4659 63.7162 67.75H137.5V58.375C137.5 53.2969 133.203 49 128.125 49H118.75V42.75C118.75 39.4297 115.82 36.5 112.5 36.5C108.984 36.5 106.25 39.4297 106.25 42.75V49H81.25V42.75C81.25 39.4297 78.3203 36.5 75 36.5Z" fill="black"/>
<path d="M50 120.339C65.4672 120.338 78.0881 107.831 78.0881 92.2501C78.0881 85.293 75.5389 78.9143 71.3264 74H137.5V127.125C137.5 132.398 133.203 136.5 128.125 136.5H59.375C54.1016 136.5 50 132.398 50 127.125V120.339Z" fill="black"/>
<path d="M50 67.25C63.7695 67.25 75 78.4805 75 92.25C75 106.117 63.7695 117.25 50 117.25C44.6289 117.25 39.7461 115.59 35.6445 112.855C34.2773 111.781 33.8867 109.828 34.8633 108.461C35.8398 106.996 37.793 106.703 39.2578 107.68C42.2852 109.828 45.9961 111 50 111C60.3516 111 68.75 102.602 68.75 92.25C68.75 81.8984 60.3516 73.5 50 73.5C44.7266 73.5 40.1367 75.6484 36.7188 79.0664L39.7461 81.9961C41.2109 83.5586 40.1367 86 38.0859 86H27.3438C25.9766 86 25 85.0234 25 83.6562V72.9141C25 70.8633 27.4414 69.7891 28.9062 71.2539L32.2266 74.5742C36.8164 70.082 43.0664 67.25 49.9023 67.25H50ZM50 79.75C51.2695 79.75 52.3438 80.8242 52.3438 82.0938V91.3711L58.5938 97.6211C59.5703 98.5977 59.5703 100.062 58.5938 100.941C57.7148 101.918 56.25 101.918 55.3711 100.941L48.3398 93.9102C47.8516 93.5195 47.6562 92.9336 47.6562 92.25V82.0938C47.6562 80.8242 48.6328 79.75 50 79.75Z" fill="#D12E6A"/>
</svg>
