<svg width="832" height="339" viewBox="0 0 832 339" fill="none" xmlns="http://www.w3.org/2000/svg">
<circle opacity="0.3" cx="146.619" cy="146.618" r="99.1008" transform="rotate(45 146.619 146.618)" fill="url(#paint0_linear_413_277)"/>
<circle opacity="0.3" cx="763" cy="65.9997" r="44.2261" transform="rotate(162.731 763 65.9997)" fill="url(#paint1_linear_413_277)"/>
<path opacity="0.3" d="M44.3092 248.927C-12.1946 192.424 -12.1946 100.813 44.3092 44.309C100.813 -12.1949 192.424 -12.1949 248.928 44.3089C305.432 100.813 305.432 192.424 248.928 248.927C192.424 305.431 100.813 305.431 44.3092 248.927ZM230.049 63.1873C183.972 17.1098 109.265 17.1098 63.1876 63.1874C17.1101 109.265 17.11 183.971 63.1876 230.049C109.265 276.127 183.972 276.127 230.049 230.049C276.127 183.971 276.127 109.265 230.049 63.1873Z" fill="url(#paint2_linear_413_277)"/>
<path opacity="0.3" d="M822.366 91.3957C808.341 124.183 770.391 139.392 737.604 125.367C704.817 111.341 689.608 73.3918 703.633 40.6047C717.659 7.81752 755.608 -7.39175 788.395 6.63381C821.183 20.6594 836.392 58.6086 822.366 91.3957ZM714.588 45.2907C703.15 72.0279 715.553 102.975 742.29 114.412C769.028 125.85 799.974 113.447 811.412 86.7097C822.849 59.9725 810.446 29.0258 783.709 17.5883C756.972 6.15075 726.025 18.5536 714.588 45.2907Z" fill="url(#paint3_linear_413_277)"/>
<circle opacity="0.3" cx="711.785" cy="235.785" r="70.2517" transform="rotate(-10.917 711.785 235.785)" fill="url(#paint4_linear_413_277)"/>
<path opacity="0.3" d="M622.525 185.259C650.429 135.963 713.013 118.621 762.31 146.525C811.607 174.429 828.949 237.013 801.045 286.31C773.14 335.606 710.557 352.948 661.26 325.044C611.963 297.14 594.621 234.556 622.525 185.259ZM784.574 276.987C807.329 236.786 793.187 185.751 752.987 162.995C712.787 140.24 661.751 154.382 638.996 194.582C616.24 234.783 630.382 285.819 670.583 308.574C710.783 331.329 761.819 317.187 784.574 276.987Z" fill="url(#paint5_linear_413_277)"/>
<defs>
<linearGradient id="paint0_linear_413_277" x1="146.619" y1="47.5176" x2="146.619" y2="245.719" gradientUnits="userSpaceOnUse">
<stop offset="0.5" stop-color="#D12E6A" stop-opacity="0"/>
<stop offset="1" stop-color="#D12E6A"/>
</linearGradient>
<linearGradient id="paint1_linear_413_277" x1="763" y1="21.7736" x2="763" y2="110.226" gradientUnits="userSpaceOnUse">
<stop offset="0.5" stop-color="#D12E6A" stop-opacity="0"/>
<stop offset="1" stop-color="#D12E6A"/>
</linearGradient>
<linearGradient id="paint2_linear_413_277" x1="248.928" y1="248.927" x2="44.3092" y2="44.309" gradientUnits="userSpaceOnUse">
<stop offset="0.489583" stop-color="#D12E6A" stop-opacity="0"/>
<stop offset="1" stop-color="#D12E6A"/>
</linearGradient>
<linearGradient id="paint3_linear_413_277" x1="788.395" y1="6.63381" x2="737.604" y2="125.367" gradientUnits="userSpaceOnUse">
<stop offset="0.489583" stop-color="#D12E6A" stop-opacity="0"/>
<stop offset="1" stop-color="#D12E6A"/>
</linearGradient>
<linearGradient id="paint4_linear_413_277" x1="711.785" y1="165.533" x2="711.785" y2="306.037" gradientUnits="userSpaceOnUse">
<stop offset="0.5" stop-color="#D12E6A" stop-opacity="0"/>
<stop offset="1" stop-color="#D12E6A"/>
</linearGradient>
<linearGradient id="paint5_linear_413_277" x1="661.26" y1="325.044" x2="762.31" y2="146.525" gradientUnits="userSpaceOnUse">
<stop offset="0.489583" stop-color="#D12E6A" stop-opacity="0"/>
<stop offset="1" stop-color="#D12E6A"/>
</linearGradient>
</defs>
</svg>
