<svg fill="none" height="160" viewBox="0 0 214 160" width="214" xmlns="http://www.w3.org/2000/svg"><g fill="#000"><path d="m101.688 24.375c.156.9375.312 2.0312.312 3.125 0 1.25-.156 2.3438-.312 3.2812l3.437 3.125c1.094.9376 1.563 2.5.938 3.9063-.313.7813-.782 1.7187-1.094 2.5l-.469.7813c-.625.7812-1.094 1.5624-1.562 2.3437-.938 1.0937-2.5 1.5625-3.9067 1.0937l-4.375-1.5624c-1.7188 1.4062-3.5938 2.5-5.625 3.2812l-1.0938 4.5312c-.1562 1.5626-1.4062 2.6563-2.8125 2.8126-1.0937.1562-2.1875.1562-3.125.1562-1.0937 0-2.1875 0-3.2812-.1562-1.4063-.1563-2.6563-1.25-2.8125-2.8126l-1.0938-4.5312c-2.0312-.7812-3.9062-1.875-5.625-3.2812l-4.375 1.5624c-1.4062.4688-2.9687 0-3.9062-1.0937-.4688-.7813-1.0938-1.5625-1.5625-2.3437l-.4688-.7813c-.3125-.7813-.7812-1.7187-1.0937-2.5-.625-1.4063-.1563-2.9687.9375-3.9063l3.4375-3.125c-.1563-.9374-.3125-2.0312-.3125-3.2812 0-1.0938.1562-2.1875.3125-3.125l-3.4375-3.125c-1.0938-1.0938-1.5625-2.6562-.9375-3.9062.3125-.9376.7812-1.7188 1.0937-2.5l.4688-.7813c.4687-.7813 1.0937-1.5625 1.5625-2.3437.9375-1.0938 2.5-1.5626 3.9062-1.0938l4.375 1.5625c1.7188-1.4063 3.5938-2.5 5.625-3.28125l1.0938-4.53125c.1562-1.5625 1.4062-2.65625 2.8125-2.8125 1.0937-.15625 2.1875-.3125 3.2812-.3125.9375 0 2.0313.15625 3.125.3125 1.4063.15625 2.6563 1.25 2.8125 2.8125l1.0938 4.53125c2.0312.78125 3.9062 1.87495 5.625 3.28125l4.375-1.5625c1.4067-.4688 2.9687 0 3.9067 1.0938.468.7812.937 1.5624 1.562 2.3437l.469.7813c.312.7812.781 1.5624 1.094 2.5.625 1.25.156 2.8124-.938 3.9062zm-19.688-4.375c-4.2187 0-7.5 3.4375-7.5 7.5 0 4.2188 3.2813 7.5 7.5 7.5 4.0625 0 7.5-3.2812 7.5-7.5 0-4.0625-3.4375-7.5-7.5-7.5zm50.625 54.8438c-.937.1562-2.031.1562-3.125.1562-1.25 0-2.344 0-3.281-.1562l-3.125 3.4374c-1.094 1.0938-2.5 1.5626-3.906.9376-.782-.3126-1.719-.7813-2.5-1.0938l-.782-.625c-.781-.4688-1.562-.9375-2.343-1.4062-1.094-.9376-1.563-2.5-1.094-3.9063l1.562-4.375c-1.406-1.7187-2.5-3.5937-3.281-5.7813l-4.531-.9374c-1.563-.3126-2.656-1.4063-2.813-2.8126-.156-1.0937-.156-2.1874-.156-3.2812 0-.9375 0-2.0312.156-3.125.157-1.4062 1.25-2.6562 2.813-2.9688l4.531-.9374c.781-2.0313 1.875-3.9063 3.281-5.625l-1.562-4.375c-.469-1.4063 0-2.9688 1.094-3.9063.781-.4687 1.562-1.0937 2.343-1.5625l.782-.4688c.781-.3124 1.562-.7812 2.5-1.0937 1.406-.625 2.812-.1563 3.906.9375l3.125 3.4375c.937-.1563 2.031-.3125 3.281-.3125 1.094 0 2.188.1562 3.125.3125l3.125-3.4375c1.094-1.0938 2.5-1.5625 3.906-.9375.938.3125 1.719.7813 2.5 1.0937l.782.4688c.781.4688 1.562 1.0938 2.343 1.5625 1.094.9375 1.563 2.5 1.094 3.9063l-1.562 4.375c1.406 1.7187 2.5 3.5937 3.281 5.625l4.531.9374c1.563.3126 2.656 1.5626 2.813 2.9688.156 1.0938.312 2.1875.312 3.125 0 1.0938-.156 2.1875-.312 3.2812-.157 1.4063-1.25 2.5-2.813 2.8126l-4.531.9374c-.781 2.1876-1.875 4.0626-3.281 5.7813l1.562 4.375c.469 1.4063 0 2.9687-1.094 3.9063-.781.4687-1.562.9374-2.343 1.4062l-.782.625c-.781.3125-1.718.7812-2.5 1.0938-1.406.625-2.812.1562-3.906-.9376zm4.375-19.8438c0-4.0625-3.437-7.5-7.5-7.5-4.219 0-7.5 3.4375-7.5 7.5 0 4.2188 3.281 7.5 7.5 7.5 4.063 0 7.5-3.2812 7.5-7.5z"/><path d="m25.475 142.25v6.75h-21.94998v-36.425h8.44998v29.675z"/><path d="m40.0145 122.675c1.9666 0 3.7583.308 5.375.925 1.6166.616 3 1.5 4.15 2.65 1.1666 1.15 2.0666 2.55 2.7 4.2.65 1.633.975 3.475.975 5.525 0 2.066-.325 3.933-.975 5.6-.6334 1.65-1.5334 3.058-2.7 4.225-1.15 1.15-2.5334 2.041-4.15 2.675-1.6167.616-3.4084.925-5.375.925-1.9834 0-3.7917-.309-5.425-.925-1.6167-.634-3.0167-1.525-4.2-2.675-1.1667-1.167-2.075-2.575-2.725-4.225-.6334-1.667-.95-3.534-.95-5.6 0-2.05.3166-3.892.95-5.525.65-1.65 1.5583-3.05 2.725-4.2 1.1833-1.15 2.5833-2.034 4.2-2.65 1.6333-.617 3.4416-.925 5.425-.925zm0 20.975c1.7833 0 3.0916-.625 3.925-1.875.85-1.267 1.275-3.184 1.275-5.75 0-2.567-.425-4.475-1.275-5.725-.8334-1.25-2.1417-1.875-3.925-1.875-1.8334 0-3.175.625-4.025 1.875s-1.275 3.158-1.275 5.725c0 2.566.425 4.483 1.275 5.75.85 1.25 2.1916 1.875 4.025 1.875z"/><path d="m70.4922 138.45c-1.55.066-2.825.2-3.825.4s-1.7917.45-2.375.75-.9917.641-1.225 1.025c-.2167.383-.325.8-.325 1.25 0 .883.2417 1.508.725 1.875.4833.35 1.1917.525 2.125.525 1 0 1.875-.175 2.625-.525s1.5083-.917 2.275-1.7zm-13.95-11.775c1.5667-1.384 3.3-2.409 5.2-3.075 1.9167-.684 3.9667-1.025 6.15-1.025 1.5667 0 2.975.258 4.225.775 1.2667.5 2.3333 1.208 3.2 2.125.8833.9 1.5583 1.975 2.025 3.225s.7 2.616.7 4.1v16.2h-3.55c-.7333 0-1.2917-.1-1.675-.3-.3667-.2-.675-.617-.925-1.25l-.55-1.425c-.65.55-1.275 1.033-1.875 1.45-.6.416-1.225.775-1.875 1.075-.6333.283-1.3167.491-2.05.625-.7167.15-1.5167.225-2.4.225-1.1833 0-2.2583-.15-3.225-.45-.9667-.317-1.7917-.775-2.475-1.375-.6667-.6-1.1833-1.342-1.55-2.225-.3667-.9-.55-1.934-.55-3.1 0-.934.2333-1.875.7-2.825.4667-.967 1.275-1.842 2.425-2.625 1.15-.8 2.7-1.467 4.65-2 1.95-.534 4.4083-.834 7.375-.9v-1.1c0-1.517-.3167-2.609-.95-3.275-.6167-.684-1.5-1.025-2.65-1.025-.9167 0-1.6667.1-2.25.3s-1.1083.425-1.575.675c-.45.25-.8917.475-1.325.675s-.95.3-1.55.3c-.5333 0-.9833-.134-1.35-.4-.3667-.267-.6667-.584-.9-.95z"/><path d="m98.7211 130.025c-.5833-.65-1.2166-1.1-1.9-1.35-.6833-.267-1.4-.4-2.15-.4-.7166 0-1.375.141-1.975.425-.6.283-1.125.741-1.575 1.375-.4333.616-.775 1.425-1.025 2.425s-.375 2.208-.375 3.625c0 1.366.1 2.516.3 3.45.2.933.475 1.691.825 2.275.3667.566.8.975 1.3 1.225s1.0584.375 1.675.375c.5667 0 1.075-.05 1.525-.15.4667-.117.8917-.275 1.275-.475s.7417-.45 1.075-.75c.35-.317.6917-.675 1.025-1.075zm7.7499-18.45v37.425h-4.8c-.967 0-1.6-.434-1.8999-1.3l-.6-1.975c-.5166.55-1.0583 1.05-1.625 1.5-.5666.45-1.1833.841-1.85 1.175-.65.316-1.3583.558-2.125.725-.75.183-1.5666.275-2.45.275-1.35 0-2.6-.3-3.75-.9s-2.1416-1.467-2.975-2.6c-.8333-1.134-1.4916-2.517-1.975-4.15-.4666-1.65-.7-3.525-.7-5.625 0-1.934.2667-3.725.8-5.375.5334-1.667 1.2834-3.1 2.25-4.3.9834-1.217 2.1584-2.167 3.525-2.85 1.3667-.684 2.875-1.025 4.525-1.025 1.35 0 2.4833.191 3.4.575.9167.383 1.75.9 2.5 1.55v-13.125z"/><path d="m119.632 123.075v25.925h-7.75v-25.925zm.8-7.1c0 .616-.125 1.2-.375 1.75-.25.533-.592 1.008-1.025 1.425-.433.4-.942.725-1.525.975-.567.233-1.175.35-1.825.35-.633 0-1.225-.117-1.775-.35-.55-.25-1.042-.575-1.475-.975-.417-.417-.75-.892-1-1.425-.233-.55-.35-1.134-.35-1.75 0-.634.117-1.225.35-1.775.25-.55.583-1.034 1-1.45.433-.417.925-.742 1.475-.975.55-.234 1.142-.35 1.775-.35.65 0 1.258.116 1.825.35.583.233 1.092.558 1.525.975.433.416.775.9 1.025 1.45s.375 1.141.375 1.775z"/><path d="m132.187 125.875c.5-.467 1.017-.9 1.55-1.3s1.1-.734 1.7-1c.617-.284 1.275-.5 1.975-.65.717-.167 1.492-.25 2.325-.25 1.417 0 2.667.25 3.75.75 1.1.483 2.025 1.166 2.775 2.05.75.866 1.317 1.908 1.7 3.125.383 1.2.575 2.508.575 3.925v16.475h-7.75v-16.475c0-1.267-.292-2.25-.875-2.95-.583-.717-1.442-1.075-2.575-1.075-.85 0-1.65.183-2.4.55-.733.35-1.45.833-2.15 1.45v18.5h-7.75v-25.925h4.8c.967 0 1.6.433 1.9 1.3z"/><path d="m163.428 134.675c1.283 0 2.208-.317 2.775-.95.583-.65.875-1.484.875-2.5 0-1.05-.292-1.875-.875-2.475-.567-.6-1.492-.9-2.775-.9-1.284 0-2.217.3-2.8.9-.567.6-.85 1.425-.85 2.475 0 .5.066.958.2 1.375.15.416.375.783.675 1.1.3.3.675.541 1.125.725.466.166 1.016.25 1.65.25zm6 15.275c0-.617-.275-1.059-.825-1.325-.55-.284-1.267-.484-2.15-.6-.884-.117-1.875-.184-2.975-.2-1.084-.034-2.167-.1-3.25-.2-.484.333-.884.708-1.2 1.125-.3.4-.45.858-.45 1.375 0 .366.075.7.225 1 .166.3.45.558.85.775.4.216.933.383 1.6.5.683.133 1.541.2 2.575.2 1.116 0 2.033-.067 2.75-.2.716-.134 1.283-.317 1.7-.55.433-.234.733-.517.9-.85.166-.317.25-.667.25-1.05zm7.65-26.075v2.825c0 .433-.125.775-.375 1.025-.234.25-.642.441-1.225.575l-1.875.425c.1.366.175.741.225 1.125.066.383.1.783.1 1.2 0 1.3-.275 2.466-.825 3.5-.534 1.033-1.275 1.916-2.225 2.65-.934.716-2.042 1.275-3.325 1.675-1.284.383-2.659.575-4.125.575-.4 0-.792-.009-1.175-.025-.384-.034-.759-.084-1.125-.15-.567.35-.85.741-.85 1.175 0 .433.233.75.7.95.466.183 1.083.316 1.85.4.766.066 1.633.116 2.6.15.983.016 1.983.075 3 .175 1.016.083 2.008.233 2.975.45.983.216 1.858.566 2.625 1.05.766.483 1.383 1.133 1.85 1.95.466.8.7 1.825.7 3.075 0 1.166-.284 2.308-.85 3.425-.567 1.116-1.4 2.108-2.5 2.975-1.1.866-2.45 1.558-4.05 2.075-1.6.533-3.434.8-5.5.8-2.034 0-3.792-.192-5.275-.575-1.467-.384-2.692-.892-3.675-1.525-.967-.617-1.684-1.334-2.15-2.15-.467-.817-.7-1.667-.7-2.55 0-1.15.333-2.109 1-2.875.666-.767 1.6-1.384 2.8-1.85-.634-.384-1.134-.875-1.5-1.475-.367-.6-.55-1.375-.55-2.325 0-.384.066-.784.2-1.2.133-.434.341-.85.625-1.25.3-.417.666-.809 1.1-1.175.433-.367.95-.692 1.55-.975-1.35-.717-2.417-1.659-3.2-2.825-.784-1.184-1.175-2.559-1.175-4.125 0-1.3.275-2.467.825-3.5.55-1.05 1.3-1.934 2.25-2.65.966-.734 2.1-1.292 3.4-1.675 1.3-.4 2.708-.6 4.225-.6 2.2 0 4.15.416 5.85 1.25z"/><path d="m179.261 145.075c0-.6.108-1.159.325-1.675.233-.517.541-.967.925-1.35.4-.384.866-.684 1.4-.9.533-.234 1.116-.35 1.75-.35.616 0 1.191.116 1.725.35.533.216 1 .516 1.4.9.4.383.708.833.925 1.35.233.516.35 1.075.35 1.675s-.117 1.166-.35 1.7c-.217.516-.525.966-.925 1.35-.4.383-.867.683-1.4.9-.534.216-1.109.325-1.725.325-.634 0-1.217-.109-1.75-.325-.534-.217-1-.517-1.4-.9-.384-.384-.692-.834-.925-1.35-.217-.534-.325-1.1-.325-1.7z"/><path d="m191.223 145.075c0-.6.109-1.159.325-1.675.234-.517.542-.967.925-1.35.4-.384.867-.684 1.4-.9.534-.234 1.117-.35 1.75-.35.617 0 1.192.116 1.725.35.534.216 1 .516 1.4.9.4.383.709.833.925 1.35.234.516.35 1.075.35 1.675s-.116 1.166-.35 1.7c-.216.516-.525.966-.925 1.35-.4.383-.866.683-1.4.9-.533.216-1.108.325-1.725.325-.633 0-1.216-.109-1.75-.325-.533-.217-1-.517-1.4-.9-.383-.384-.691-.834-.925-1.35-.216-.534-.325-1.1-.325-1.7z"/><path d="m203.186 145.075c0-.6.109-1.159.325-1.675.234-.517.542-.967.925-1.35.4-.384.867-.684 1.4-.9.534-.234 1.117-.35 1.75-.35.617 0 1.192.116 1.725.35.534.216 1 .516 1.4.9.4.383.709.833.925 1.35.234.516.35 1.075.35 1.675s-.116 1.166-.35 1.7c-.216.516-.525.966-.925 1.35-.4.383-.866.683-1.4.9-.533.216-1.108.325-1.725.325-.633 0-1.216-.109-1.75-.325-.533-.217-1-.517-1.4-.9-.383-.384-.691-.834-.925-1.35-.216-.534-.325-1.1-.325-1.7z"/></g></svg>